<svg width="16" height="16" viewBox="0 0 16 16" fill="none" xmlns="http://www.w3.org/2000/svg">
<path d="M1.63606 14.3641C2.02659 14.7546 2.65975 14.7546 3.05027 14.3641L14.364 3.05038C14.7545 2.65986 14.7545 2.02669 14.364 1.63617C13.9735 1.24564 13.3403 1.24564 12.9498 1.63617L1.63606 12.9499C1.24554 13.3404 1.24554 13.9736 1.63606 14.3641Z" fill="#25282B"/>
<path d="M14.3641 14.3639C14.7546 13.9734 14.7546 13.3402 14.3641 12.9497L3.05038 1.63602C2.65986 1.24549 2.02669 1.24549 1.63617 1.63602C1.24564 2.02654 1.24564 2.65971 1.63617 3.05023L12.9499 14.3639C13.3404 14.7545 13.9736 14.7545 14.3641 14.3639Z" fill="#25282B"/>
</svg>
